<?xml version="1.0" encoding="utf-8"?>
<!-- Generator: Adobe Illustrator 16.0.4, SVG Export Plug-In . SVG Version: 6.00 Build 0)  -->
<!DOCTYPE svg PUBLIC "-//W3C//DTD SVG 1.1//EN" "http://www.w3.org/Graphics/SVG/1.1/DTD/svg11.dtd">
<svg version="1.1" id="Layer_1" xmlns="http://www.w3.org/2000/svg" xmlns:xlink="http://www.w3.org/1999/xlink" x="0px" y="0px"
	 width="612px" height="612px" viewBox="8.511 -80.5 612 612" enable-background="new 8.511 -80.5 612 612" xml:space="preserve">
<path fill="#5CCAE9" d="M86.131,185.917c2.26-11.215,5.54-22.073,10.622-32.293c0.654-1.317,1.452-2.581,2.318-3.761
	c4.052-5.527,8.116-3.819,11.055,0.998c3.563,5.838,5.214,12.514,7.332,18.978c1.61,4.919,2.809,10.009,5.647,14.428
	c1.976,3.077,4.601,3.45,7.051,0.713c2.96-3.306,4.048-7.594,5.192-11.752c3.186-11.576,4.573-23.522,6.571-35.344
	c1.796-10.63,3.853-21.192,7.724-31.276c3.714-9.677,11.004-11.081,17.713-3.305c6.198,7.183,10.532,15.672,15.274,23.867
	c0.356,0.616,0.771,1.196,1.494,2.308c2.159-4.349,2.072-8.699,2.65-12.845c2.594-18.584,3.352-37.402,6.564-55.91
	c0.596-3.433,1.424-6.819,2.905-9.98c0.696-1.485,1.621-2.976,3.394-2.975c1.812,0.002,2.627,1.552,3.272,3.079
	c2.692,6.379,3.156,13.255,4.051,20.014c0.979,7.39,1.682,14.818,2.504,22.23c0.748,6.072,0.548,12.176,0.549,18.272
	c0.008,71.905,0.006,143.81,0.003,215.714c0,5.099,0.16,10.207-0.615,15.273c-0.583,3.722-1.167,7.448-1.75,11.172
	c-0.441-0.169-1.138-0.211-1.286-0.529c-2.611-5.61-7.771-9.17-10.752-14.581c-1.822-3.306-5.008-5.807-6.424-9.563
	c-0.344-0.911-1.273-1.465-2.331-1.506c-0.92-3.917-1.397-7.898-1.623-11.916c-0.072-1.279-0.069-2.71-1.95-1.509
	c-3.082-0.858-5.507-2.885-6.711-5.74c-1.808-4.288-4.632-8.1-7.562-11.104c-6.639-6.816-11.755-14.818-16.793-22.639
	c-5.518-8.565-12.211-16.151-17.725-24.726c-4.216-6.558-9.537-12.615-14.146-19.087c-5.914-8.302-11.506-16.86-18.171-24.584
	c-1.059-1.228-2.79-1.814-3.334-3.292c-2.238-6.076-7.542-9.952-10.273-15.643C88.042,185.999,87.121,185.92,86.131,185.917z"/>
<path fill="#6ACBDC" d="M476.979,280.16c-1.64-21.933-8.154-41.907-22.584-58.503c-6.772-7.79-15.173-13.407-24.528-17.401
	c-2.544-1.085-3.475-1.9-1.19-4.465c6.037-6.781,10.185-14.751,12.88-23.525c0.234-0.765,0.373-1.448,1.332-1.393
	c1.753,8.859,3.505,17.721,5.344,27.016c2.773-1.405,3.406-3.965,4.621-5.924c4.815-7.755,6.56-7.846,11.672-0.472
	c1.208,1.742,1.87,4.926,4.266,4.448c2.24-0.448,1.984-3.669,2.625-5.71c1.45-4.61,2.685-9.294,3.938-13.969
	c0.678-2.528,1.642-5.052,4.439-5.221c3.012-0.183,4.984,2.072,5.729,4.832c1.027,3.812,1.526,7.78,2.241,11.685
	c0.582,3.177,1.458,6.243,2.96,9.099c1.456-0.307,1.999-1.54,2.878-2.319c4.164-3.696,8.282-3.763,12.218,0.157
	c1.938,1.928,3.842,2.488,6.512,1.952c6.979-1.405,13.2-4.549,19.267-8.193c2.121-1.273,2.844-3.276,3.255-5.524
	c0.824-4.525,2.373-8.564,6.156-11.435c1.599-1.216,2.152-3.241,2.593-5.216c0.915-4.118,1.879-8.229,2.783-12.349
	c0.463-2.099,1.295-4.036,2.463-5.779c3.192-4.778,8.968-4.632,11.941,0.271c1.36,2.242,2.102,4.763,2.722,7.293
	c3.707,15.192,7.438,30.381,10.354,45.764c1.086,5.736,2.253,6.845,7.676,7.662c8.21,1.237,16.43,2.43,24.602,3.894
	c1.103,0.197,3.81-0.958,3.32,2.39c-0.35,2.381,0.335,4.524-3.445,5.061c-7.631,1.082-15.312,1.597-22.938,2.675
	c-4.797,0.676-7.803,3.128-8.958,7.844c-2.325,9.518-4.427,19.096-6.746,28.615c-1.793,7.356-3.697,14.686-5.71,21.98
	c-1.188,4.302-3.379,5.973-7.187,6.03c-3.884,0.057-5.873-1.527-7.23-5.909c-1.212-3.909-2.249-7.878-3.528-11.761
	c-1.731-5.258-4.361-9.967-8.393-13.758c-2.504-2.351-4.691-4.971-6.547-7.931c-3.808-6.066-9.561-9.35-16.084-11.293
	c-3.53-1.051-6.672,0.441-9.506,2.45c-2.508,1.778-4.697,1.437-6.91-0.433c-5.294-4.468-7.909-3.558-9.138,3.429
	c-1.38,7.841-3.234,15.561-5.138,23.272c-0.656,2.651-1.377,5.287-2.165,7.899C479.408,278.815,478.912,280.324,476.979,280.16z"/>
<path fill="#5CC9EB" d="M86.131,185.917c0.989,0.003,1.91,0.082,2.438,1.183c2.73,5.691,8.035,9.568,10.273,15.643
	c0.544,1.479,2.276,2.065,3.334,3.292c6.665,7.724,12.257,16.283,18.171,24.584c4.609,6.471,9.93,12.528,14.146,19.087
	c5.513,8.575,12.207,16.161,17.725,24.726c5.038,7.821,10.154,15.823,16.793,22.639c2.93,3.005,5.754,6.816,7.562,11.104
	c1.204,2.856,3.629,4.881,6.711,5.741c-5.091,6.368-7.92,14.251-12.946,20.668c-1.981,2.529-4.01,4.984-6.706,6.736
	c-4.778,3.101-8.799,2.34-12.301-2.391c-3.567-4.816-4.552-10.647-5.745-16.351c-3.509-16.775-5.792-33.781-8.741-50.659
	c-1.182-6.761-4.246-12.845-7.613-19.904c-2.446,9.544-4.662,18.121-6.841,26.707c-1.202,4.733-2.906,9.231-5.628,13.267
	c-3.644,5.4-7.586,5.59-11.687,0.498c-4.011-4.981-6.087-10.98-8.1-16.991c-4.018-11.996-8-24.006-12.011-36.003
	c-0.334-0.999-0.779-1.958-1.474-3.68c-0.831,7.128-0.707,13.498-2.324,19.624c-0.724,2.746-1.25,6.335-4.427,6.576
	c-3.199,0.242-4.114-3.355-5.266-5.878c-2.5-5.477-3.055-11.471-4.101-17.339c-0.448-2.516-0.384-6.007-2.798-6.886
	c-2.523-0.919-3.681,2.556-5.399,4.134c-1.7,1.563-3.022,3.564-5.212,4.535c-4.252,1.884-9.363,0.425-10.935-4.19
	c-2.086-6.133-6.678-7.941-11.852-9.582c-2.276-0.723-5.956-0.509-6.069-3.563c-0.099-2.689,3.416-3.041,5.554-3.978
	c2.709-1.186,4.504-3.247,6.005-5.713c1.925-3.162,3.647-6.48,5.826-9.442c4.252-5.781,9.346-6.068,14.471-1.077
	c1.403,1.365,2.715,2.833,4.108,4.212c0.856,0.846,1.782,2.125,3.037,1.59c1.469-0.627,1.698-2.331,1.79-3.836
	c0.322-5.354,1.122-10.635,2.285-15.848c0.51-2.288,1.178-4.599,2.18-6.694c1.851-3.869,4.988-3.98,7.103-0.27
	c2.634,4.624,3.068,9.891,3.715,15.075c0.161,1.292-0.332,2.751,0.992,4.059C83.83,196.148,84.202,190.806,86.131,185.917z"/>
<path fill="#6ACBDC" d="M240.297,41.522c-8.115-0.028-16.231-0.056-24.347-0.083c1.567-11.818,2.58-23.718,4.885-35.425
	c0.579-2.938,1.452-5.801,2.885-8.415c1.07-1.954,2.273-3.966,4.848-3.914c2.637,0.055,4.078,1.872,5.124,4.107
	c1.595,3.41,2.174,7.096,2.626,10.807C237.651,19.571,238.972,30.547,240.297,41.522z"/>
<path fill="#5CC9EB" d="M186.859,327.34c1.058,0.04,1.988,0.592,2.331,1.506c1.418,3.756,4.603,6.256,6.424,9.563
	c2.983,5.411,8.141,8.97,10.753,14.581c0.146,0.317,0.845,0.359,1.286,0.528c-1.288,10.459-2.562,20.921-3.87,31.378
	c-0.306,2.459-0.646,4.921-1.109,7.351c-0.296,1.561-1.202,2.834-2.848,2.947c-1.791,0.125-2.586-1.381-2.878-2.827
	c-1.029-5.096-1.968-10.217-2.773-15.356c-2.455-15.683-4.837-31.376-7.225-47.07C186.819,329.092,186.884,328.208,186.859,327.34z"
	/>
<path fill="#5CC9EB" d="M220.208,396.975c5.568-0.035,11.137-0.07,16.705-0.106c-1.536,16.793-3.072,33.587-4.615,50.38
	c-0.141,1.523-0.397,3.141-2.155,3.446c-2.046,0.357-3.102-1.188-3.729-2.846c-1.598-4.228-1.427-8.778-1.954-13.188
	C222.962,422.108,221.615,409.537,220.208,396.975z"/>
<path fill="#303030" d="M400.98,208.125c5.502,1.111,11.009,2.129,16.376,3.797c22.581,7.022,36.924,22.55,43.912,45.548
	c5.98,19.677,7.018,39.763,2.216,59.744c-6.339,26.378-23.024,43.938-46.523,55.052c-15.772,7.459-32.602,10.292-49.693,11.906
	c-9.982,0.942-19.991,0.771-29.996,0.771c-37.499,0.001-74.996-0.03-112.493,0.068c-2.679,0.007-3.367-0.625-3.364-3.447
	c0.078-108.21,0.07-216.42,0.039-324.629c0-2.177-0.111-3.58,2.866-3.569c41.476,0.157,82.953-0.035,124.43,0.317
	c14.491,0.123,28.761,2.691,42.373,8.222c23.527,9.561,37.729,27.301,42.577,52.851c3.72,19.61,3.457,39.091-2.938,58.242
	c-4.795,14.352-13.786,24.891-26.45,32.282c-1.042,0.609-2.088,1.217-3.104,1.871C401.074,207.234,401.098,207.584,400.98,208.125z
	 M304.845,283.187c0,10.843,0.072,21.685-0.054,32.525c-0.028,2.524,0.491,3.536,3.14,3.384c4.208-0.242,8.437,0.005,12.652-0.104
	c12.15-0.315,24.361-0.097,36.208-3.619c14.046-4.175,24.265-12.556,25.045-27.978c0.52-10.308-0.439-20.197-8.487-27.796
	c-7.073-6.676-15.686-9.518-24.88-10.806c-13.795-1.936-27.685-0.629-41.527-1.028c-2.273-0.064-2.108,1.34-2.107,2.896
	C304.853,261.503,304.845,272.344,304.845,283.187z M304.845,151.265c0,9.71,0.095,19.423-0.062,29.131
	c-0.044,2.692,0.787,3.298,3.255,3.276c6.507-0.057,13.007-0.195,19.478-0.884c8.356-0.889,16.53-2.669,22.979-8.7
	c10.155-9.496,10.617-21.691,7.188-34.074c-3.293-11.895-12.835-16.836-23.736-19.078c-8.647-1.78-17.484-1.482-26.271-1.654
	c-2.559-0.05-2.896,0.968-2.873,3.226C304.902,132.09,304.845,141.678,304.845,151.265z"/>
</svg>
