<?xml version="1.0" encoding="UTF-8" standalone="no"?>
<svg width="475px" height="288px" viewBox="0 0 475 288" version="1.1" xmlns="http://www.w3.org/2000/svg" xmlns:xlink="http://www.w3.org/1999/xlink">
    <!-- Generator: Sketch 39.1 (31720) - http://www.bohemiancoding.com/sketch -->
    <title>Creating Space FINAL</title>
    <desc>Created with Sketch.</desc>
    <defs>
        <polygon id="path-1" points="0.964 132.94 172.146941 132.94 172.146941 0.496 0.964 0.496"></polygon>
    </defs>
    <g id="Page-1" stroke="none" stroke-width="1" fill="none" fill-rule="evenodd">
        <g id="Creating-Space-FINAL">
            <path d="M58.482,54.809 C58.482,56.103 57.705,56.88 56.411,56.88 L43.467,56.88 C42.043,56.88 41.396,56.103 41.396,54.809 L41.396,44.454 C41.396,41.088 39.583,39.277 36.218,39.277 L29.488,39.277 C25.992,39.277 24.309,41.088 24.309,44.454 L24.309,103.478 C24.309,106.972 26.122,108.655 29.488,108.655 L36.218,108.655 C39.583,108.655 41.396,106.972 41.396,103.478 L41.396,93.123 C41.396,91.828 42.043,91.052 43.467,91.052 L56.411,91.052 C57.705,91.052 58.482,91.828 58.482,93.123 L58.482,107.102 C58.482,119.269 51.88,125.741 39.843,125.741 L25.346,125.741 C13.179,125.741 6.577,119.269 6.577,107.102 L6.577,40.83 C6.577,28.662 13.179,22.19 25.346,22.19 L39.843,22.19 C51.88,22.19 58.482,28.662 58.482,40.83 L58.482,54.809" id="Fill-1" fill="#FBFBFB"></path>
            <path d="M99.658,73.966 C103.023,73.966 104.836,72.154 104.836,68.788 L104.836,44.454 C104.836,41.088 103.023,39.277 99.658,39.277 L86.843,39.277 L86.843,73.966 L99.658,73.966 L99.658,73.966 Z M122.439,72.413 C122.439,81.085 119.203,86.78 112.99,89.498 L121.921,123.411 C122.31,124.964 121.533,125.741 120.109,125.741 L106.648,125.741 C105.353,125.741 104.706,125.094 104.447,123.929 L95.775,91.052 L86.843,91.052 L86.843,123.67 C86.843,124.964 86.066,125.741 84.772,125.741 L71.311,125.741 C70.016,125.741 69.24,124.964 69.24,123.67 L69.24,24.261 C69.24,22.967 70.016,22.19 71.311,22.19 L103.8,22.19 C115.967,22.19 122.439,28.662 122.439,40.83 L122.439,72.413 L122.439,72.413 Z" id="Fill-2" fill="#FBFBFB"></path>
            <path d="M187.028,37.206 C187.028,38.5 186.51,39.406 184.957,39.406 L152.597,39.406 L152.597,65.293 L177.32,65.293 C178.614,65.293 179.391,66.07 179.391,67.494 L179.391,80.308 C179.391,81.732 178.614,82.509 177.32,82.509 L152.597,82.509 L152.597,108.655 L184.957,108.655 C186.51,108.655 187.028,109.303 187.028,110.726 L187.028,123.67 C187.028,124.964 186.51,125.741 184.957,125.741 L137.323,125.741 C136.158,125.741 135.382,124.964 135.382,123.67 L135.382,24.261 C135.382,22.967 136.158,22.19 137.323,22.19 L184.957,22.19 C186.51,22.19 187.028,22.967 187.028,24.261 L187.028,37.206" id="Fill-3" fill="#FBFBFB"></path>
            <path d="M299.961,22.19 C301.384,22.19 302.031,22.967 302.031,24.261 L302.031,37.206 C302.031,38.5 301.384,39.277 299.961,39.277 L284.946,39.277 L284.946,123.67 C284.946,125.094 284.3,125.741 282.874,125.741 L269.413,125.741 C268.118,125.741 267.343,125.094 267.343,123.67 L267.343,39.277 L252.326,39.277 C251.033,39.277 250.257,38.5 250.257,37.206 L250.257,24.261 C250.257,22.967 251.033,22.19 252.326,22.19 L299.961,22.19" id="Fill-4" fill="#FBFBFB"></path>
            <path d="M329.013,22.19 C330.306,22.19 331.083,22.967 331.083,24.261 L331.083,123.67 C331.083,124.964 330.306,125.741 329.013,125.741 L315.552,125.741 C314.126,125.741 313.48,124.964 313.48,123.67 L313.48,24.261 C313.48,22.967 314.126,22.19 315.552,22.19 L329.013,22.19" id="Fill-5" fill="#FBFBFB"></path>
            <path d="M402.688,22.19 C403.983,22.19 404.76,22.967 404.76,24.261 L404.76,123.67 C404.76,124.964 403.983,125.741 402.688,125.741 L389.873,125.741 C388.708,125.741 387.931,125.223 387.543,124.059 L367.74,68.788 L367.093,68.788 L367.093,123.67 C367.093,124.964 366.447,125.741 365.021,125.741 L351.56,125.741 C350.265,125.741 349.49,124.964 349.49,123.67 L349.49,24.261 C349.49,22.967 350.265,22.19 351.56,22.19 L364.375,22.19 C365.54,22.19 366.317,22.708 366.705,23.873 L386.38,78.885 L387.157,78.885 L387.157,24.261 C387.157,22.967 387.803,22.19 389.227,22.19 L402.688,22.19" id="Fill-6" fill="#FBFBFB"></path>
            <path d="M419.888,40.83 C419.888,28.662 426.36,22.19 438.528,22.19 L455.612,22.19 C467.65,22.19 474.253,28.662 474.253,40.83 L474.253,54.291 C474.253,55.585 473.476,56.362 472.18,56.362 L459.238,56.362 C457.812,56.362 457.166,55.585 457.166,54.291 L457.166,44.454 C457.166,41.088 455.354,39.277 451.989,39.277 L442.67,39.277 C439.174,39.277 437.491,41.088 437.491,44.454 L437.491,103.478 C437.491,106.972 439.302,108.655 442.67,108.655 L451.989,108.655 C455.354,108.655 457.166,106.972 457.166,103.478 L457.166,86.133 L450.435,86.133 C449.012,86.133 448.363,85.356 448.363,84.062 L448.363,71.118 C448.363,69.694 449.012,69.047 450.435,69.047 L472.18,69.047 C473.476,69.047 474.253,69.694 474.253,71.118 L474.253,107.102 C474.253,119.269 467.65,125.741 455.612,125.741 L438.528,125.741 C426.36,125.741 419.888,119.269 419.888,107.102 L419.888,40.83" id="Fill-7" fill="#FBFBFB"></path>
            <path d="M340.724,197.469 C340.724,198.763 339.947,199.54 338.654,199.54 L325.709,199.54 C324.286,199.54 323.639,198.763 323.639,197.469 L323.639,187.114 C323.639,183.748 321.825,181.936 318.46,181.936 L311.73,181.936 C308.234,181.936 306.553,183.748 306.553,187.114 L306.553,246.137 C306.553,249.632 308.364,251.315 311.73,251.315 L318.46,251.315 C321.825,251.315 323.639,249.632 323.639,246.137 L323.639,235.782 C323.639,234.488 324.286,233.711 325.709,233.711 L338.654,233.711 C339.947,233.711 340.724,234.488 340.724,235.782 L340.724,249.762 C340.724,261.929 334.124,268.401 322.086,268.401 L307.588,268.401 C295.422,268.401 288.819,261.929 288.819,249.762 L288.819,183.489 C288.819,171.322 295.422,164.85 307.588,164.85 L322.086,164.85 C334.124,164.85 340.724,171.322 340.724,183.489 L340.724,197.469" id="Fill-8" fill="#FBFBFB"></path>
            <path d="M405.313,179.865 C405.313,181.16 404.796,182.065 403.243,182.065 L370.883,182.065 L370.883,207.953 L395.605,207.953 C396.901,207.953 397.677,208.73 397.677,210.154 L397.677,222.968 C397.677,224.392 396.901,225.168 395.605,225.168 L370.883,225.168 L370.883,251.315 L403.243,251.315 C404.796,251.315 405.313,251.962 405.313,253.386 L405.313,266.33 C405.313,267.624 404.796,268.401 403.243,268.401 L355.608,268.401 C354.443,268.401 353.669,267.624 353.669,266.33 L353.669,166.921 C353.669,165.627 354.443,164.85 355.608,164.85 L403.243,164.85 C404.796,164.85 405.313,165.627 405.313,166.921 L405.313,179.865" id="Fill-9" fill="#FBFBFB"></path>
            <path d="M75.464,164.85 C87.631,164.85 94.103,171.322 94.103,183.489 L94.103,197.21 C94.103,198.504 93.455,199.281 92.032,199.281 L78.57,199.281 C77.276,199.281 76.499,198.504 76.499,197.21 L76.499,187.114 C76.499,183.748 74.816,181.936 71.322,181.936 L65.109,181.936 C61.873,181.936 59.931,183.748 59.931,187.114 L59.931,204.976 L90.737,215.072 C92.938,215.978 94.103,217.402 94.103,219.862 L94.103,249.762 C94.103,261.929 87.631,268.401 75.464,268.401 L60.967,268.401 C48.929,268.401 42.328,261.929 42.328,249.762 L42.328,236.171 C42.328,234.747 43.104,234.1 44.399,234.1 L57.86,234.1 C59.284,234.1 59.931,234.747 59.931,236.171 L59.931,246.137 C59.931,249.632 61.873,251.315 65.109,251.315 L71.322,251.315 C74.687,251.315 76.499,249.632 76.499,246.137 L76.499,228.922 L45.822,218.826 C43.492,218.049 42.328,216.496 42.328,214.037 L42.328,183.489 C42.328,171.322 48.929,164.85 60.967,164.85 L75.464,164.85" id="Fill-10" fill="#FBFBFB"></path>
            <g id="Group-15" transform="translate(111.000000, 155.000000)">
                <mask id="mask-2" fill="white">
                    <use xlink:href="#path-1"></use>
                </mask>
                <g id="Clip-12"></g>
                <path d="M29.959,61.626 C33.453,61.626 35.136,59.684 35.136,56.448 L35.136,32.114 C35.136,28.748 33.453,26.936 29.959,26.936 L18.567,26.936 L18.567,61.626 L29.959,61.626 L29.959,61.626 Z M0.964,11.921 C0.964,10.627 1.74,9.85 3.035,9.85 L34.101,9.85 C46.267,9.85 52.74,16.322 52.74,28.489 L52.74,60.072 C52.74,72.11 46.267,78.711 34.101,78.711 L18.567,78.711 L18.567,111.33 C18.567,112.624 17.921,113.401 16.496,113.401 L3.035,113.401 C1.74,113.401 0.964,112.624 0.964,111.33 L0.964,11.921 L0.964,11.921 Z" id="Fill-11" fill="#FBFBFB" mask="url(#mask-2)"></path>
                <path d="M101.147,0.496 L87.184,129.102 C86.925,131.608 86.278,133 85.113,133 L55.967,133 C54.542,133 53.896,131.33 54.284,128.267 L76.202,0.914 L101.147,0.496" id="Fill-13" fill="#FBFBFB" mask="url(#mask-2)"></path>
                <path d="M150.118,0.914 L172.036,128.267 C172.424,131.33 171.778,133 170.353,133 L141.208,133 C140.043,133 139.395,131.608 139.137,129.102 L125.173,0.496 L150.118,0.914" id="Fill-14" fill="#FBFBFB" mask="url(#mask-2)"></path>
            </g>
            <path d="M257.472,133.419 C350.191,136.989 427.687,156.548 463.275,173.463 L463.233,173.545 C411.995,158.363 323.988,148.608 224.065,149.096 C123.554,149.587 50.951,156.742 0,172.576 L0.923,172.184 C36.352,154.949 100.994,137.525 190.872,133.642 L190.871,133.624 L212.993,4.246 C213.252,1.462 214.028,0.348 215.193,0.348 L233.185,0.348 C234.35,0.348 235.127,1.462 235.386,4.246 L257.472,133.41 L257.472,133.419 L257.472,133.419 Z M236.504,133.193 L224.448,41.191 L212.143,133.248 C212.143,133.248 217.293,133.204 224.626,133.204 C231.96,133.204 236.504,133.193 236.504,133.193 L236.504,133.193 Z" id="Fill-16" fill="#FBFBFB"></path>
        </g>
    </g>
</svg>