<svg viewBox="0 0 18 17" version="1.1" xmlns="http://www.w3.org/2000/svg"><path d="M8.155,0.48 C8.817,0.48 11.058,0.665 12.115,3.032 C12.469,3.829 12.385,5.182 12.315,6.269 L12.313,6.314 C12.305,6.434 12.298,6.546 12.293,6.656 C12.343,6.684 12.428,6.716 12.561,6.723 C12.761,6.713 12.993,6.649 13.251,6.528 C13.361,6.475 13.479,6.465 13.558,6.465 C13.674,6.465 13.792,6.487 13.891,6.528 C14.188,6.635 14.375,6.848 14.379,7.088 C14.385,7.392 14.113,7.655 13.571,7.868 C13.505,7.895 13.424,7.921 13.338,7.948 C13.032,8.045 12.57,8.192 12.444,8.488 C12.379,8.641 12.404,8.838 12.521,9.074 L12.529,9.09 C12.569,9.184 13.549,11.416 15.723,11.775 C15.89,11.803 16.01,11.952 16,12.121 C15.997,12.171 15.985,12.221 15.964,12.271 C15.801,12.651 15.112,12.931 13.859,13.124 C13.816,13.181 13.773,13.38 13.746,13.501 C13.719,13.624 13.692,13.745 13.654,13.873 C13.602,14.053 13.471,14.15 13.284,14.15 L13.267,14.15 C13.177,14.15 13.057,14.135 12.907,14.105 C12.665,14.058 12.395,14.015 12.053,14.015 C11.853,14.015 11.649,14.032 11.443,14.065 C11.037,14.135 10.693,14.375 10.295,14.658 C9.725,15.061 9.08,15.518 8.099,15.518 C8.054,15.518 8.013,15.516 7.981,15.514 L7.901,15.517 C6.919,15.517 6.274,15.06 5.704,14.657 C5.306,14.377 4.962,14.133 4.558,14.065 C4.348,14.031 4.144,14.015 3.945,14.015 C3.587,14.015 3.301,14.07 3.092,14.11 C2.952,14.138 2.832,14.16 2.732,14.16 C2.479,14.16 2.382,14.007 2.342,13.88 C2.304,13.748 2.277,13.624 2.252,13.503 C2.224,13.383 2.182,13.181 2.139,13.125 C0.89,12.933 0.2,12.654 0.037,12.272 C0.017,12.224 0.004,12.172 0.002,12.122 C-0.008,11.954 0.112,11.805 0.28,11.777 C2.454,11.419 3.434,9.187 3.474,9.092 L3.482,9.076 C3.598,8.84 3.624,8.643 3.559,8.49 C3.433,8.194 2.971,8.047 2.664,7.95 C2.579,7.923 2.499,7.897 2.432,7.87 C1.692,7.578 1.588,7.242 1.632,7.012 C1.692,6.692 2.082,6.477 2.41,6.477 C2.504,6.477 2.59,6.494 2.663,6.529 C2.943,6.659 3.19,6.724 3.4,6.724 C3.557,6.724 3.657,6.687 3.71,6.657 C3.704,6.527 3.695,6.395 3.687,6.267 C3.619,5.181 3.534,3.829 3.889,3.033 C4.94,0.668 7.178,0.484 7.838,0.484 L8.115,0.48 L8.155,0.48 L8.155,0.48 Z" fill="#d1d1d1"/></svg>