<?xml version="1.0" encoding="utf-8"?>
<!-- Generator: Adobe Illustrator 16.0.4, SVG Export Plug-In . SVG Version: 6.00 Build 0)  -->
<!DOCTYPE svg PUBLIC "-//W3C//DTD SVG 1.1//EN" "http://www.w3.org/Graphics/SVG/1.1/DTD/svg11.dtd">
<svg version="1.1" id="Layer_1" xmlns="http://www.w3.org/2000/svg" xmlns:xlink="http://www.w3.org/1999/xlink" x="0px" y="0px"
	 width="612px" height="612px" viewBox="0 132.5 612 612" enable-background="new 0 132.5 612 612" xml:space="preserve">
<path d="M600.311,493.595c0,39.398-32.021,71.419-71.419,71.419H330.33V319.677c7.533-2.825,15.54-4.866,23.701-6.121
	c6.437-0.942,13.029-1.569,19.62-1.569c66.397,0,120.864,51.328,126.045,116.311c8.946-3.924,18.678-6.278,29.195-6.278
	C568.289,422.175,600.311,454.196,600.311,493.595z M256.085,368.18v196.834h23.702V353.896
	c-5.337,5.807-10.046,12.243-14.127,18.993C262.677,371.005,259.381,369.593,256.085,368.18z M292.815,565.014h23.702V325.799
	c-8.477,4.238-16.481,9.574-23.702,15.54V565.014z M142.441,392.823v172.19h23.702V373.987
	C157.354,379.167,149.349,385.446,142.441,392.823z M71.336,428.453v135.775c2.982,0.314,5.808,0.629,8.947,0.629h12.4V428.926
	c-4.082-0.785-8.163-1.1-12.4-1.1C77.301,427.983,74.319,428.141,71.336,428.453z M39.943,551.829
	c5.336,3.925,11.302,7.063,17.737,9.261V431.751c-6.435,2.196-12.4,5.336-17.737,9.26V551.829z M105.712,432.85v132.164h23.702
	V410.09c-5.336,8.789-9.418,18.521-11.772,28.881C113.874,436.616,109.95,434.576,105.712,432.85z M180.271,565.014h23.702V361.272
	c-8.319,1.099-16.167,3.14-23.702,5.966V565.014z M218.256,565.014h23.702V363.627c-7.535-1.882-15.541-2.981-23.702-2.981V565.014
	L218.256,565.014z M28.328,541.156v-89.314c-10.36,11.929-16.639,27.626-16.639,44.735
	C11.689,513.529,17.968,529.069,28.328,541.156z"/>
</svg>
